<?xml version="1.0" encoding="UTF-8"?>
<svg version="1.1" xmlns="http://www.w3.org/2000/svg" width="492" height="492">
<path d="M0 0 C162.36 0 324.72 0 492 0 C492 162.36 492 324.72 492 492 C329.64 492 167.28 492 0 492 C0 329.64 0 167.28 0 0 Z " fill="#000000" transform="translate(0,0)"/>
<path d="M0 0 C0.95685699 -0.00563965 1.91371399 -0.0112793 2.89956665 -0.01708984 C4.48034752 -0.01101715 4.48034752 -0.01101715 6.09306335 -0.00482178 C7.75465485 -0.01007874 7.75465485 -0.01007874 9.44981384 -0.01544189 C13.13654236 -0.02428827 16.82308068 -0.01839221 20.5098114 -0.01165771 C23.07981401 -0.01300535 25.64981638 -0.0149467 28.21981812 -0.01745605 C33.62795144 -0.02041272 39.03601348 -0.01629024 44.44413757 -0.0067749 C50.6422291 0.00400649 56.84018797 0.00066291 63.03827602 -0.01042771 C69.03859881 -0.02072493 75.03885848 -0.01946914 81.03919029 -0.01366425 C83.57009589 -0.01234369 86.10100494 -0.01391855 88.63190651 -0.01862335 C108.96454195 -0.04807468 128.9270431 0.05794661 148.45903015 6.25396729 C149.28274109 6.50146729 150.10645203 6.74896729 150.9551239 7.00396729 C174.16436398 14.2852975 197.31179737 27.20487289 209.48442078 49.09820557 C220.84923853 71.01526782 224.80480297 98.39329693 217.2363739 122.28912354 C214.37827473 130.6615918 210.68459761 138.07037097 205.45903015 145.25396729 C204.34528015 146.80084229 204.34528015 146.80084229 203.20903015 148.37896729 C195.07406029 156.8837085 185.73344336 162.74928167 175.45903015 168.25396729 C176.55860046 168.72705322 177.65817078 169.20013916 178.7910614 169.68756104 C197.36860365 177.89815242 212.30037932 190.41785013 220.0879364 209.55084229 C228.51029696 232.29841439 226.75190893 259.10817592 216.77153015 281.06646729 C208.452618 298.214129 195.9679633 309.98725892 179.45903015 319.25396729 C178.31627625 319.92685791 178.31627625 319.92685791 177.1504364 320.61334229 C162.55547777 328.62626075 145.85296972 332.36753578 129.45903015 334.25396729 C128.76421036 334.34138687 128.06939056 334.42880646 127.35351562 334.51887512 C119.87252304 335.38175387 112.44323258 335.38151699 104.91996765 335.35162354 C103.71122986 335.35061646 102.50249207 335.34960938 101.25712585 335.34857178 C96.78275084 335.34337718 92.30838945 335.32941618 87.83403015 335.31646729 C77.81028015 335.29584229 67.78653015 335.27521729 57.45903015 335.25396729 C57.45903015 315.12396729 57.45903015 294.99396729 57.45903015 274.25396729 C86.20903015 273.87896729 86.20903015 273.87896729 95.21195984 273.77593994 C97.60161902 273.74069097 99.99126835 273.70476504 102.38090515 273.66802979 C103.59342957 273.65666992 104.80595398 273.64531006 106.05522156 273.63360596 C121.49795933 273.37466712 139.84836438 271.39197736 151.6035614 260.21490479 C158.90022916 251.52034909 160.20305396 242.10310817 159.81059265 231.03912354 C159.12801494 223.69003689 156.07358483 217.19422495 150.45903015 212.25396729 C137.00347545 202.52794133 121.99353296 199.96621877 105.73564148 199.93511963 C104.51483887 199.92507401 103.29403625 199.91502838 102.03623962 199.90467834 C98.72497646 199.87928329 95.41388066 199.86230951 92.10256028 199.84925032 C88.62853647 199.83350129 85.15459676 199.80674937 81.68063354 199.78121948 C75.11845308 199.73463825 68.55625642 199.69779497 61.99399632 199.66454661 C54.51620122 199.62617823 47.03849103 199.5768072 39.56076777 199.52656245 C24.19358347 199.42355026 8.82635135 199.33419113 -6.54096985 199.25396729 C-6.58763256 173.60290745 -6.62293053 147.95185395 -6.64459419 122.30076027 C-6.6549191 110.39126799 -6.66900257 98.48180204 -6.69184875 86.57232666 C-6.71174552 76.19542975 -6.72467744 65.8185519 -6.72914684 55.44163644 C-6.73176053 49.94407504 -6.73792891 44.44656817 -6.75242996 38.9490242 C-6.76595528 33.77975139 -6.77020278 28.61055584 -6.76718521 23.44126701 C-6.76773765 21.53928521 -6.77174504 19.63730095 -6.7793808 17.7353344 C-6.78926314 15.1479125 -6.7869635 12.56078623 -6.78147888 9.97335815 C-6.78730456 9.21266702 -6.79313025 8.45197589 -6.79913247 7.66823351 C-6.76557775 1.85224379 -5.91256208 0.00534783 0 0 Z " fill="#FEFEFE" transform="translate(179.5409698486328,44.74603271484375)"/>
<path d="M0 0 C3.27194762 2.66666586 6.30873143 5.40532378 9.1875 8.5 C9.85394531 9.17289062 10.52039063 9.84578125 11.20703125 10.5390625 C28.09947629 28.20850246 34.5818246 50.467589 34.4375 74.4375 C34.44523438 75.71818359 34.45296875 76.99886719 34.4609375 78.31835938 C34.43872937 89.21700159 33.49757889 99.43076397 29.1875 109.5 C28.8265625 110.42554688 28.465625 111.35109375 28.09375 112.3046875 C19.20621102 134.69444915 4.09892342 150.92869094 -17.8125 160.875 C-39.67390017 169.54251549 -66.28781933 169.42382369 -88.26953125 161.03125 C-104.34326539 154.0842778 -116.1571601 144.21932935 -125.8125 129.5 C-126.53373047 128.45199219 -126.53373047 128.45199219 -127.26953125 127.3828125 C-137.25953654 112.35253263 -141.22169721 93.10202322 -141.125 75.3125 C-141.11936035 74.21824707 -141.1137207 73.12399414 -141.10791016 71.99658203 C-140.75474651 48.27167773 -132.50303666 25.29411736 -115.64453125 8.24609375 C-85.89153027 -20.60405755 -33.74388328 -25.82726507 0 0 Z " fill="#05B4D2" transform="translate(190.8125,273.5)"/>
<path d="M0 0 C13.35057578 10.04205613 20.42607834 24.46639045 23.23828125 40.68359375 C24.96682145 58.09395044 21.97105718 76.27751906 11.1328125 90.43359375 C2.28047254 100.67244479 -8.9262652 108.58810362 -22.84545898 109.87646484 C-39.55646068 110.48160372 -52.69552499 107.81339739 -65.44921875 96.24609375 C-66.59390625 94.97765625 -66.59390625 94.97765625 -67.76171875 93.68359375 C-68.24253906 93.17183594 -68.72335938 92.66007812 -69.21875 92.1328125 C-82.06124598 77.9898106 -83.65389622 60.80890848 -83.1484375 42.4453125 C-82.81951857 35.98210733 -81.62925791 30.50328799 -78.76171875 24.68359375 C-78.39949219 23.83410156 -78.03726563 22.98460937 -77.6640625 22.109375 C-71.53351246 8.5390388 -60.94754305 -1.36618227 -47.13671875 -6.87890625 C-31.55261661 -11.35212075 -13.53055879 -8.88012124 0 0 Z " fill="#000101" transform="translate(167.76171875,298.31640625)"/>
<path d="M0 0 C13.3340625 -0.12375 13.3340625 -0.12375 26.9375 -0.25 C31.09073853 -0.30462402 31.09073853 -0.30462402 35.32788086 -0.36035156 C54.60101345 -0.50711428 74.99118732 0.22608963 90 14 C98.64550515 23.6039435 99.82247602 32.35457163 99.47265625 44.8671875 C98.91718663 53.40501864 95.32150954 59.05029979 89.25 64.875 C71.44736681 78.89624682 49.94784289 77.51615487 28.5 77.25 C19.095 77.1675 9.69 77.085 0 77 C0 51.59 0 26.18 0 0 Z " fill="#020202" transform="translate(236,105)"/>
<path d="M0 0 C4.76544622 2.10318576 7.23653161 4.62686693 9.72265625 9.30078125 C11.53285903 14.7313896 11.42363372 19.39821897 9.03515625 24.55078125 C6.54900301 29.0381997 3.62840927 31.66553024 -1.27734375 33.30078125 C-3.23209384 33.44557755 -5.19245755 33.52145627 -7.15234375 33.55078125 C-8.69535156 33.58945312 -8.69535156 33.58945312 -10.26953125 33.62890625 C-13.71817011 33.2526911 -15.50584948 32.3530296 -18.27734375 30.30078125 C-23.19495112 23.74397143 -24.08491435 18.34187706 -23.27734375 10.30078125 C-18.76718914 0.55884729 -10.17999697 -3.12559084 0 0 Z " fill="#05B3D0" transform="translate(144.27734375,332.69921875)"/>
</svg>
